# xmcd
#
# Track frame offsets:
#	150
#	27404
#	48305
#	75623
#	94749
#	117141
#	143026
#	165824
#	179705
#	208032
#	223262
#	236870
#
# Disc length: 3422 seconds
#
# Revision: 0
# Processed by: cddbd v1.5.2PL0 Copyright (c) Steve Scherf et al.
# Submitted via: EasyCDDAExtractor 16.0.4.1
#
DISCID=a60d5c0c
DTITLE=Mostar Sevdah Reunion - Sarajevo, Skenderija [ Live Album ]
DYEAR=2012
DGENRE=Sevdah
TTITLE0=Anterija
TTITLE1=Mostarski Dućani
TTITLE2=Zapjevala Sojka Ptica
TTITLE3=U Lijepom Gradu Višegradu
TTITLE4=Amanet Mi Babo Ostavio
TTITLE5=Sjećaš Li Se Hanuma
TTITLE6=Nema Ljepše Cure Od Malene Đule
TTITLE7=Đela Fato, Đela Zlato
TTITLE8=Grana Od Bora
TTITLE9=Duni Vjetre Malo Sa Neretve
TTITLE10=Zaprosio Alija
TTITLE11=Oj Djevojko Pod Brdom
EXTD=
EXTT0=
EXTT1=
EXTT2=
EXTT3=
EXTT4=
EXTT5=
EXTT6=
EXTT7=
EXTT8=
EXTT9=
EXTT10=
EXTT11=
PLAYORDER=
